<svg width="68" height="68" viewBox="0 0 68 68" fill="none" xmlns="http://www.w3.org/2000/svg">
<path d="M63.2188 7.4375H4.78125C3.79531 7.43859 2.85007 7.83074 2.1529 8.5279C1.45574 9.22507 1.06359 10.1703 1.0625 11.1562V48.3438C1.06359 49.3297 1.45574 50.2749 2.1529 50.9721C2.85007 51.6693 3.79531 52.0614 4.78125 52.0625H26.0552L24.7802 55.25H19.125C18.8432 55.25 18.573 55.3619 18.3737 55.5612C18.1744 55.7605 18.0625 56.0307 18.0625 56.3125V58.4375H11.6875C11.4057 58.4375 11.1355 58.5494 10.9362 58.7487C10.7369 58.948 10.625 59.2182 10.625 59.5C10.625 59.7818 10.7369 60.052 10.9362 60.2513C11.1355 60.4506 11.4057 60.5625 11.6875 60.5625H56.3125C56.5943 60.5625 56.8645 60.4506 57.0638 60.2513C57.2631 60.052 57.375 59.7818 57.375 59.5C57.375 59.2182 57.2631 58.948 57.0638 58.7487C56.8645 58.5494 56.5943 58.4375 56.3125 58.4375H49.9375V56.3125C49.9375 56.0307 49.8256 55.7605 49.6263 55.5612C49.427 55.3619 49.1568 55.25 48.875 55.25H43.2198L41.9448 52.0625H63.2188C64.2047 52.0614 65.1499 51.6693 65.8471 50.9721C66.5443 50.2749 66.9364 49.3297 66.9375 48.3438V11.1562C66.9364 10.1703 66.5443 9.22507 65.8471 8.5279C65.1499 7.83074 64.2047 7.43859 63.2188 7.4375ZM47.8125 57.375V58.4375H20.1875V57.375H47.8125ZM27.0698 55.25L28.3448 52.0625H39.6552L40.9302 55.25H27.0698ZM64.8125 48.3438C64.8121 48.7663 64.6441 49.1715 64.3453 49.4703C64.0465 49.7691 63.6413 49.9371 63.2188 49.9375H4.78125C4.35867 49.9371 3.9535 49.7691 3.65469 49.4703C3.35588 49.1715 3.18785 48.7663 3.1875 48.3438V45.6875H64.8125V48.3438ZM64.8125 43.5625H3.1875V11.1562C3.18785 10.7337 3.35588 10.3285 3.65469 10.0297C3.9535 9.73088 4.35867 9.56285 4.78125 9.5625H63.2188C63.6413 9.56285 64.0465 9.73088 64.3453 10.0297C64.6441 10.3285 64.8121 10.7337 64.8125 11.1562V43.5625Z" fill="#FFB400"/>
<path d="M29.1671 34.888C29.2838 34.9646 29.4144 35.0174 29.5514 35.0435C29.6885 35.0696 29.8294 35.0684 29.966 35.04C30.1026 35.0117 30.2323 34.9567 30.3477 34.8782C30.4631 34.7997 30.5618 34.6992 30.6384 34.5826L39.0056 21.8326C39.1602 21.597 39.2149 21.3096 39.1577 21.0337C39.1005 20.7578 38.936 20.5159 38.7004 20.3613C38.4648 20.2066 38.1774 20.1519 37.9015 20.2092C37.6256 20.2664 37.3837 20.4309 37.2291 20.6665L28.8619 33.4165C28.7853 33.5331 28.7324 33.6637 28.7063 33.8008C28.6802 33.9379 28.6813 34.0788 28.7096 34.2155C28.738 34.3521 28.793 34.4819 28.8715 34.5973C28.9499 34.7127 29.0504 34.8115 29.1671 34.888Z" fill="#FFB400"/>
<path d="M40.7573 34.8165C40.9738 34.9969 41.2531 35.0839 41.5337 35.0583C41.8143 35.0328 42.0733 34.8968 42.2537 34.6804L47.5662 28.3054C47.7253 28.1144 47.8124 27.8738 47.8124 27.6252C47.8124 27.3767 47.7253 27.136 47.5662 26.9451L42.2537 20.5701C42.1647 20.462 42.0551 20.3726 41.9314 20.307C41.8077 20.2413 41.6723 20.2008 41.5328 20.1878C41.3934 20.1747 41.2528 20.1893 41.119 20.2307C40.9853 20.2722 40.861 20.3397 40.7534 20.4293C40.6459 20.519 40.5571 20.629 40.4921 20.7531C40.4272 20.8772 40.3875 21.0128 40.3752 21.1523C40.3629 21.2918 40.3783 21.4324 40.4205 21.5659C40.4627 21.6994 40.5309 21.8233 40.6212 21.9304L45.3668 27.6252L40.6212 33.3201C40.4408 33.5366 40.3538 33.8159 40.3793 34.0965C40.4049 34.3771 40.5408 34.6361 40.7573 34.8165Z" fill="#FFB400"/>
<path d="M25.7462 34.6804C25.8352 34.7884 25.9448 34.8779 26.0685 34.9435C26.1922 35.0091 26.3276 35.0496 26.4671 35.0627C26.6065 35.0758 26.7471 35.0612 26.8809 35.0197C27.0146 34.9782 27.1389 34.9107 27.2465 34.8211C27.354 34.7315 27.4428 34.6214 27.5078 34.4974C27.5727 34.3733 27.6124 34.2376 27.6247 34.0981C27.637 33.9586 27.6216 33.8181 27.5794 33.6845C27.5372 33.551 27.469 33.4272 27.3787 33.3201L22.6331 27.6252L27.3787 21.9304C27.469 21.8233 27.5372 21.6994 27.5794 21.5659C27.6216 21.4324 27.637 21.2918 27.6247 21.1523C27.6124 21.0128 27.5727 20.8772 27.5078 20.7531C27.4428 20.629 27.354 20.519 27.2465 20.4293C27.1389 20.3397 27.0146 20.2722 26.8809 20.2307C26.7471 20.1893 26.6065 20.1747 26.4671 20.1878C26.3276 20.2008 26.1922 20.2413 26.0685 20.307C25.9448 20.3726 25.8352 20.462 25.7462 20.5701L20.4337 26.9451C20.2746 27.136 20.1875 27.3767 20.1875 27.6252C20.1875 27.8737 20.2746 28.1144 20.4337 28.3054L25.7462 34.6804Z" fill="#FFB400"/>
</svg>
