<svg width="12" height="10" viewBox="0 0 12 10" fill="none" xmlns="http://www.w3.org/2000/svg">
<path d="M11.5666 1.79066C11.8332 2.83016 11.8332 5.00016 11.8332 5.00016C11.8332 5.00016 11.8332 7.17016 11.5666 8.20966C11.4184 8.78425 10.985 9.23633 10.4361 9.38916C9.43917 9.66683 5.99984 9.66683 5.99984 9.66683C5.99984 9.66683 2.56225 9.66683 1.56359 9.38916C1.01234 9.234 0.579504 8.7825 0.433087 8.20966C0.166504 7.17016 0.166504 5.00016 0.166504 5.00016C0.166504 5.00016 0.166504 2.83016 0.433087 1.79066C0.581254 1.21608 1.01467 0.763996 1.56359 0.611163C2.56225 0.333496 5.99984 0.333496 5.99984 0.333496C5.99984 0.333496 9.43917 0.333496 10.4361 0.611163C10.9873 0.766329 11.4202 1.21783 11.5666 1.79066ZM4.83317 7.04183L8.33317 5.00016L4.83317 2.9585V7.04183Z" fill="#2B2B2B"/>
</svg>
